<?xml version="1.0" encoding="UTF-8" standalone="no"?>
<!-- Created with Inkscape (http://www.inkscape.org/) -->
<svg xmlns:dc="http://purl.org/dc/elements/1.1/" xmlns:cc="http://creativecommons.org/ns#" xmlns:rdf="http://www.w3.org/1999/02/22-rdf-syntax-ns#" xmlns:svg="http://www.w3.org/2000/svg" xmlns="http://www.w3.org/2000/svg" xmlns:sodipodi="http://sodipodi.sourceforge.net/DTD/sodipodi-0.dtd" xmlns:inkscape="http://www.inkscape.org/namespaces/inkscape" width="428" height="428" id="svg2" version="1.1" inkscape:version="0.48.4 r9939" sodipodi:docname="drawing.svg">
<defs id="defs4"/>
<sodipodi:namedview id="base" pagecolor="#ffffff" bordercolor="#666666" borderopacity="1.0" inkscape:pageopacity="0.0" inkscape:pageshadow="2" inkscape:zoom="0.35" inkscape:cx="-782.10124" inkscape:cy="303.72422" inkscape:document-units="px" inkscape:current-layer="layer2" showgrid="false" showguides="true" inkscape:guide-bbox="true" inkscape:snap-global="false" inkscape:window-width="1600" inkscape:window-height="837" inkscape:window-x="-8" inkscape:window-y="-8" inkscape:window-maximized="1" fit-margin-top="0" fit-margin-left="0" fit-margin-right="0" fit-margin-bottom="0"/>
<metadata id="metadata7">
<rdf:RDF>
<cc:Work rdf:about="">
<dc:format>image/svg+xml</dc:format>
<dc:type rdf:resource="http://purl.org/dc/dcmitype/StillImage"/>
<dc:title/>
</cc:Work>
</rdf:RDF>
</metadata>
<g inkscape:groupmode="layer" id="layer2" inkscape:label="Layer" style="display:inline" transform="translate(-35.49864,-34.742207)">
<rect style="fill:#00529b;fill-opacity:1;fill-rule:evenodd;stroke:none" id="rect2997" width="70.041039" height="236.09625" x="338.94925" y="36.224354"/>
<rect style="fill:#00529b;fill-opacity:1;fill-rule:evenodd;stroke:none" id="rect2997-1" width="69.409691" height="178.41768" x="90.253685" y="-462.86951" transform="matrix(0,1,-1,0,0,0)"/>
<path inkscape:connector-curvature="0" style="fill:#00529b;fill-opacity:1;stroke:none" d="M 408.33394,284.38714 C 404.29707,383.57007 322.41532,462.7422 221.99625,462.7422 118.9986,462.7422 34.839008,379.4498 35.502537,276.70816 36.216823,166.10726 118.9986,90.674119 221.99625,90.674119 L 271.39738,90.712921 271.50908,159.76868 221.69785,160.05156 C 157.09902,160.05156 101.87418,210.92599 104.73133,276.87359 107.52396,341.33214 157.09902,393.6956 221.69785,393.6956 283.81147,393.6956 334.61695,345.33953 338.43413,284.26347 z" id="path3023-0-9" sodipodi:nodetypes="cssccccsscc"/>
<path style="fill:#00529b;fill-opacity:1;stroke:none" d="M 166.70499,271.73341 130.10512,272.1567 C 131.97006,232.44008 163.8434,189.91743 209.81561,186.36258 181.73387,212.95995 169.73554,237.43128 166.70499,271.73341 z" id="path3023-0-8" inkscape:connector-curvature="0" sodipodi:nodetypes="cccc"/>
<path style="fill:#00529b;fill-opacity:1;stroke:none" d="M 277.76433,271.50035 314.3642,271.92364 C 312.49926,232.20702 280.62592,189.68437 234.65371,186.12952 262.73545,212.72689 274.73378,237.19822 277.76433,271.50035 z" id="path3023-0-8-8" inkscape:connector-curvature="0" sodipodi:nodetypes="cccc"/>
<path style="fill:#00529b;fill-opacity:1;stroke:none" d="M 166.19881,282.90585 129.59894,282.48256 C 131.46388,322.19918 163.33722,364.72183 209.30943,368.27668 181.22769,341.67931 169.22936,317.20798 166.19881,282.90585 z" id="path3023-0-8-2" inkscape:connector-curvature="0" sodipodi:nodetypes="cccc"/>
<path style="fill:#00529b;fill-opacity:1;stroke:none" d="M 277.25815,283.13891 313.85802,282.71562 C 311.99308,322.43224 280.11974,364.95489 234.14753,368.50974 262.22927,341.91237 274.2276,317.44104 277.25815,283.13891 z" id="path3023-0-8-8-4" inkscape:connector-curvature="0" sodipodi:nodetypes="cccc"/>
<path style="fill:#00529b;fill-opacity:1;stroke:none" d="M 228.862,271.36171 266.61779,271.65873 C 259.63895,232.19465 246.80248,213.43532 228.862,195.99088 z" id="path3023-0-8-5-5" inkscape:connector-curvature="0" sodipodi:nodetypes="cccc"/>
<path style="fill:#00529b;fill-opacity:1;stroke:none" d="M 216.36272,272.11932 178.60693,272.41634 C 185.58577,232.95226 198.42224,214.19293 216.36272,196.74849 z" id="path3023-0-8-5-5-1" inkscape:connector-curvature="0" sodipodi:nodetypes="cccc"/>
<path style="fill:#00529b;fill-opacity:1;stroke:none" d="M 228.4832,283.79236 266.23899,283.49534 C 259.26015,322.95942 246.42368,341.71875 228.4832,359.16319 z" id="path3023-0-8-5-5-7" inkscape:connector-curvature="0" sodipodi:nodetypes="cccc"/>
<path style="fill:#00529b;fill-opacity:1;stroke:none" d="M 215.98392,283.03475 178.22813,282.73773 C 185.20697,322.20181 198.04344,340.96114 215.98392,358.40558 z" id="path3023-0-8-5-5-1-1" inkscape:connector-curvature="0" sodipodi:nodetypes="cccc"/>
</g>
</svg>